<svg xmlns="http://www.w3.org/2000/svg" viewBox="0 0 286.96 120.26"><defs><style>.cls-1{fill:#fc6756;}.cls-2{fill:#dbd2bc;}</style></defs><title>Asset 1</title><g id="Layer_2" data-name="Layer 2"><g id="Layer_1-2" data-name="Layer 1"><rect class="cls-1" y="84.91" width="286.96" height="10.58" rx="1.2" ry="1.2"/><path class="cls-2" d="M5.29,105.07H9.76v12.26h1.53v2.62h-6v-2.62H6.82v-9.64H5.29Z"/><path class="cls-2" d="M15.52,115.61l0,.3a2,2,0,0,0,.36.76,2.35,2.35,0,0,0,.6.54,2.66,2.66,0,0,0,.76.33,3.35,3.35,0,0,0,.85.11,6.05,6.05,0,0,0,.82-.05,6.51,6.51,0,0,0,.75-.14c.24-.06.48-.13.71-.21l.7-.25,1.05,2q-.54.33-1,.57a6.38,6.38,0,0,1-.91.39,5.48,5.48,0,0,1-1,.22,8.85,8.85,0,0,1-1.2.07,5.84,5.84,0,0,1-2.29-.42A4.82,4.82,0,0,1,13,116.92a5.93,5.93,0,0,1-.36-2.07,5.52,5.52,0,0,1,.38-2A5,5,0,0,1,15.76,110a5.31,5.31,0,0,1,2.12-.41A5.22,5.22,0,0,1,20,110a4.34,4.34,0,0,1,1.53,1.07,4.8,4.8,0,0,1,1,1.61,6.3,6.3,0,0,1,.36,2,4.58,4.58,0,0,1,0,.47,4.78,4.78,0,0,1,0,.48ZM17.81,112a2.84,2.84,0,0,0-.91.13,1.88,1.88,0,0,0-.64.35,1.8,1.8,0,0,0-.41.51,2.87,2.87,0,0,0-.24.6h4.14a3.13,3.13,0,0,0-.19-.61,1.63,1.63,0,0,0-.34-.51,1.56,1.56,0,0,0-.56-.35A2.41,2.41,0,0,0,17.81,112Z"/><path class="cls-2" d="M30,119.41l-.61.36a3.35,3.35,0,0,1-1.13.37,4.59,4.59,0,0,1-.65,0,4.83,4.83,0,0,1-1.59-.24,3.51,3.51,0,0,1-1.19-.67,2.91,2.91,0,0,1-.74-1,3.2,3.2,0,0,1,0-2.53,2.78,2.78,0,0,1,.76-1,3.61,3.61,0,0,1,1.22-.65,5.34,5.34,0,0,1,1.65-.23,9.78,9.78,0,0,1,1.24.07q.56.07,1,.18v-.31a1.37,1.37,0,0,0-.14-.65,1.24,1.24,0,0,0-.4-.45,1.77,1.77,0,0,0-.62-.26,3.67,3.67,0,0,0-.79-.08,6.33,6.33,0,0,0-1.58.18,6,6,0,0,0-1.32.51l-.92-1.86a8.1,8.1,0,0,1,2-1,7.12,7.12,0,0,1,2.26-.35,6.81,6.81,0,0,1,1.72.21,3.48,3.48,0,0,1,1.35.67,3.14,3.14,0,0,1,.88,1.21,4.59,4.59,0,0,1,.32,1.82v3.6h1.33v2.62H30Zm-2.18-1.48a3.32,3.32,0,0,0,1.23-.22,3.66,3.66,0,0,0,.95-.54v-1.26H27.7a1.4,1.4,0,0,0-.43.07,1.25,1.25,0,0,0-.38.19.94.94,0,0,0-.27.31.85.85,0,0,0-.1.42,1,1,0,0,0,.32.74A1.39,1.39,0,0,0,27.81,117.93Z"/><path class="cls-2" d="M44.74,113.64H42.05v-1a4.5,4.5,0,0,0-.72.05,1.91,1.91,0,0,0-.57.18,1.18,1.18,0,0,0-.41.34,1.31,1.31,0,0,0-.23.54v3.58h2v2.62H35.67v-2.62h1.48v-4.67H35.69V110H40.1v.7a3.17,3.17,0,0,1,.95-.52,3.48,3.48,0,0,1,1.15-.18h2.54Z"/><path class="cls-2" d="M54.51,114.25a1.84,1.84,0,0,0-.44-1.31,1.52,1.52,0,0,0-1.17-.47,2.51,2.51,0,0,0-1,.22,2.65,2.65,0,0,0-1,.82v3.81h1.61v2.62H46.36v-2.62h1.45v-4.67H46.38V110h4.51v.87a5.08,5.08,0,0,1,1.39-.77,4.68,4.68,0,0,1,1.62-.28,3.65,3.65,0,0,1,2.75,1,4,4,0,0,1,1,2.92v3.55H59v2.62H54.51Z"/><path class="cls-2" d="M60.23,118.4a1.85,1.85,0,0,1,1.13-1.72,1.84,1.84,0,0,1,.74-.15,1.76,1.76,0,0,1,.71.15,1.92,1.92,0,0,1,.59.4,1.82,1.82,0,0,1,.4.6,1.84,1.84,0,0,1,.14.72,1.82,1.82,0,0,1-.15.73,1.86,1.86,0,0,1-1,1,1.75,1.75,0,0,1-.72.15,1.83,1.83,0,0,1-.74-.15,1.94,1.94,0,0,1-.59-.4,1.74,1.74,0,0,1-.39-.59A1.93,1.93,0,0,1,60.23,118.4Z"/><path class="cls-2" d="M76.72,113.46a2.86,2.86,0,0,0-.92-.78,2.28,2.28,0,0,0-1.2-.22,2.19,2.19,0,0,0-1,.15,2.34,2.34,0,0,0-.78.54,2.42,2.42,0,0,0-.51.82,3,3,0,0,0-.18,1.07,2.62,2.62,0,0,0,.19,1,2.51,2.51,0,0,0,.52.81,2.34,2.34,0,0,0,.78.53,3.09,3.09,0,0,0,1,.23,2.78,2.78,0,0,0,.82-.19,2.49,2.49,0,0,0,.66-.38,2.61,2.61,0,0,0,.49-.53,3.18,3.18,0,0,0,.32-.55l2.63.73a4.54,4.54,0,0,1-.56,1.2,4.72,4.72,0,0,1-1,1.13,5.48,5.48,0,0,1-3.5,1.18,5.19,5.19,0,0,1-2.09-.42,5,5,0,0,1-1.64-1.13A5.2,5.2,0,0,1,69.61,117a5.53,5.53,0,0,1-.39-2.07,5.16,5.16,0,0,1,1.49-3.69,5,5,0,0,1,1.66-1.09,5,5,0,0,1,2.09-.35,4.73,4.73,0,0,1,1.56.18,5.39,5.39,0,0,1,1.43.66h1.9v2.88Z"/><path class="cls-2" d="M80.51,115a5.26,5.26,0,0,1,.39-2,5.07,5.07,0,0,1,2.75-2.77,5.7,5.7,0,0,1,4.25,0,5.13,5.13,0,0,1,1.67,1.12,5.05,5.05,0,0,1,1.08,1.65,5.31,5.31,0,0,1,.39,2,5.46,5.46,0,0,1-.38,2,5,5,0,0,1-2.73,2.79,5.89,5.89,0,0,1-4.32,0A4.92,4.92,0,0,1,80.88,117,5.48,5.48,0,0,1,80.51,115Zm2.86,0a2.75,2.75,0,0,0,.19,1,2.55,2.55,0,0,0,.52.82,2.37,2.37,0,0,0,.76.54,2.3,2.3,0,0,0,.93.19,2.37,2.37,0,0,0,.94-.19,2.22,2.22,0,0,0,.76-.53A2.51,2.51,0,0,0,88,116a2.9,2.9,0,0,0,.18-1,3,3,0,0,0-.18-1.07,2.4,2.4,0,0,0-.5-.81,2.17,2.17,0,0,0-.76-.51,2.38,2.38,0,0,0-.94-.17,2.35,2.35,0,0,0-.93.17,2.26,2.26,0,0,0-.76.51,2.44,2.44,0,0,0-.52.81A2.88,2.88,0,0,0,83.36,115Z"/><path class="cls-2" d="M100.24,114.25a1.84,1.84,0,0,0-.44-1.31,1.52,1.52,0,0,0-1.17-.47,2.51,2.51,0,0,0-1,.22,2.65,2.65,0,0,0-1,.82v3.81h1.61v2.62H92.1v-2.62h1.45v-4.67H92.11V110h4.51v.87a5.08,5.08,0,0,1,1.39-.77,4.68,4.68,0,0,1,1.62-.28,3.65,3.65,0,0,1,2.75,1,4,4,0,0,1,1,2.92v3.55h1.41v2.62h-4.52Z"/><path class="cls-2" d="M114.2,114.25a1.84,1.84,0,0,0-.44-1.31,1.52,1.52,0,0,0-1.17-.47,2.51,2.51,0,0,0-1,.22,2.65,2.65,0,0,0-1,.82v3.81h1.61v2.62h-6.16v-2.62h1.45v-4.67h-1.43V110h4.51v.87a5.08,5.08,0,0,1,1.39-.77,4.68,4.68,0,0,1,1.62-.28,3.65,3.65,0,0,1,2.75,1,4,4,0,0,1,1,2.92v3.55h1.41v2.62H114.2Z"/><path class="cls-2" d="M122.59,115.61l0,.3a2,2,0,0,0,.36.76,2.35,2.35,0,0,0,.6.54,2.66,2.66,0,0,0,.76.33,3.35,3.35,0,0,0,.85.11,6.05,6.05,0,0,0,.82-.05,6.51,6.51,0,0,0,.75-.14c.24-.06.48-.13.71-.21l.7-.25,1.05,2q-.54.33-1,.57a6.38,6.38,0,0,1-.91.39,5.48,5.48,0,0,1-1,.22,8.85,8.85,0,0,1-1.2.07,5.84,5.84,0,0,1-2.29-.42,4.82,4.82,0,0,1-2.73-2.85,5.93,5.93,0,0,1-.36-2.07,5.52,5.52,0,0,1,.38-2,5,5,0,0,1,2.71-2.79,5.31,5.31,0,0,1,2.12-.41A5.22,5.22,0,0,1,127,110a4.34,4.34,0,0,1,1.53,1.07,4.8,4.8,0,0,1,1,1.61,6.3,6.3,0,0,1,.36,2,4.58,4.58,0,0,1,0,.47,4.78,4.78,0,0,1,0,.48Zm2.29-3.61a2.84,2.84,0,0,0-.91.13,1.88,1.88,0,0,0-.64.35,1.8,1.8,0,0,0-.41.51,2.87,2.87,0,0,0-.24.6h4.14a3.13,3.13,0,0,0-.19-.61,1.63,1.63,0,0,0-.34-.51,1.56,1.56,0,0,0-.56-.35A2.41,2.41,0,0,0,124.87,112Z"/><path class="cls-2" d="M138.77,113.46a2.86,2.86,0,0,0-.92-.78,2.28,2.28,0,0,0-1.2-.22,2.19,2.19,0,0,0-1,.15,2.34,2.34,0,0,0-.78.54,2.42,2.42,0,0,0-.51.82,3,3,0,0,0-.18,1.07,2.62,2.62,0,0,0,.19,1,2.51,2.51,0,0,0,.52.81,2.34,2.34,0,0,0,.78.53,3.09,3.09,0,0,0,1,.23,2.78,2.78,0,0,0,.82-.19,2.49,2.49,0,0,0,.66-.38,2.61,2.61,0,0,0,.49-.53,3.18,3.18,0,0,0,.32-.55l2.63.73a4.54,4.54,0,0,1-.56,1.2,4.72,4.72,0,0,1-1,1.13,5.48,5.48,0,0,1-3.5,1.18,5.19,5.19,0,0,1-2.09-.42,5,5,0,0,1-1.64-1.13,5.2,5.2,0,0,1-1.08-1.68,5.53,5.53,0,0,1-.39-2.07,5.16,5.16,0,0,1,1.49-3.69,5,5,0,0,1,1.66-1.09,5,5,0,0,1,2.09-.35,4.73,4.73,0,0,1,1.56.18,5.39,5.39,0,0,1,1.43.66h1.9v2.88Z"/><path class="cls-2" d="M147.55,110h2v2.51h-2l0,4.19a2.45,2.45,0,0,0,.06.59.9.9,0,0,0,.17.36.54.54,0,0,0,.26.18,1.2,1.2,0,0,0,.35,0,2.57,2.57,0,0,0,.64-.07l.55-.17.41,1.84a4.5,4.5,0,0,1-1.08.49,4.91,4.91,0,0,1-1.42.18,3.12,3.12,0,0,1-1.11-.2,2.58,2.58,0,0,1-.93-.61,3,3,0,0,1-.64-1,3.79,3.79,0,0,1-.23-1.42l0-4.39h-1.42V110h1.43l0-2.37,3-1.42Z"/><path class="cls-2" d="M151.37,118.4a1.85,1.85,0,0,1,1.13-1.72,1.84,1.84,0,0,1,.74-.15,1.76,1.76,0,0,1,.71.15,1.92,1.92,0,0,1,.59.4,1.82,1.82,0,0,1,.4.6,1.84,1.84,0,0,1,.14.72,1.82,1.82,0,0,1-.15.73,1.86,1.86,0,0,1-1,1,1.75,1.75,0,0,1-.72.15,1.83,1.83,0,0,1-.74-.15,1.94,1.94,0,0,1-.59-.4,1.74,1.74,0,0,1-.39-.59A1.93,1.93,0,0,1,151.37,118.4Z"/><path class="cls-2" d="M167.86,113.46a2.86,2.86,0,0,0-.92-.78,2.28,2.28,0,0,0-1.2-.22,2.19,2.19,0,0,0-1,.15,2.34,2.34,0,0,0-.78.54,2.42,2.42,0,0,0-.51.82,3,3,0,0,0-.18,1.07,2.62,2.62,0,0,0,.19,1,2.51,2.51,0,0,0,.52.81,2.34,2.34,0,0,0,.78.53,3.09,3.09,0,0,0,1,.23,2.78,2.78,0,0,0,.82-.19,2.49,2.49,0,0,0,.66-.38,2.61,2.61,0,0,0,.49-.53,3.18,3.18,0,0,0,.32-.55l2.63.73a4.54,4.54,0,0,1-.56,1.2,4.72,4.72,0,0,1-1,1.13,5.48,5.48,0,0,1-3.5,1.18,5.19,5.19,0,0,1-2.09-.42,5,5,0,0,1-1.64-1.13,5.2,5.2,0,0,1-1.08-1.68,5.53,5.53,0,0,1-.39-2.07,5.16,5.16,0,0,1,1.49-3.69,5,5,0,0,1,1.66-1.09,5,5,0,0,1,2.09-.35,4.73,4.73,0,0,1,1.56.18,5.39,5.39,0,0,1,1.43.66h1.9v2.88Z"/><path class="cls-2" d="M171.65,115a5.26,5.26,0,0,1,.39-2,5.07,5.07,0,0,1,2.75-2.77,5.7,5.7,0,0,1,4.25,0,5.13,5.13,0,0,1,1.67,1.12,5.05,5.05,0,0,1,1.08,1.65,5.31,5.31,0,0,1,.39,2,5.46,5.46,0,0,1-.38,2,5,5,0,0,1-2.73,2.79,5.89,5.89,0,0,1-4.32,0A4.92,4.92,0,0,1,172,117,5.48,5.48,0,0,1,171.65,115Zm2.86,0a2.75,2.75,0,0,0,.19,1,2.55,2.55,0,0,0,.52.82,2.37,2.37,0,0,0,.76.54,2.3,2.3,0,0,0,.93.19,2.37,2.37,0,0,0,.94-.19,2.22,2.22,0,0,0,.76-.53,2.51,2.51,0,0,0,.5-.82,2.9,2.9,0,0,0,.18-1,3,3,0,0,0-.18-1.07,2.4,2.4,0,0,0-.5-.81,2.17,2.17,0,0,0-.76-.51,2.38,2.38,0,0,0-.94-.17,2.35,2.35,0,0,0-.93.17,2.26,2.26,0,0,0-.76.51,2.44,2.44,0,0,0-.52.81A2.88,2.88,0,0,0,174.5,115Z"/><path class="cls-2" d="M183.43,105.07h4.46v12.26h1.53v2.62h-6v-2.62H185v-9.64h-1.53Z"/><path class="cls-2" d="M190.88,105.07h4.46v12.26h1.53v2.62h-6v-2.62h1.53v-9.64h-1.53Z"/><path class="cls-2" d="M204.63,119.41l-.61.36a3.35,3.35,0,0,1-1.13.37,4.59,4.59,0,0,1-.65,0,4.83,4.83,0,0,1-1.59-.24,3.51,3.51,0,0,1-1.19-.67,2.91,2.91,0,0,1-.74-1,3.2,3.2,0,0,1,0-2.53,2.78,2.78,0,0,1,.76-1,3.61,3.61,0,0,1,1.22-.65,5.34,5.34,0,0,1,1.65-.23,9.78,9.78,0,0,1,1.24.07q.56.07,1,.18v-.31a1.37,1.37,0,0,0-.14-.65,1.24,1.24,0,0,0-.4-.45,1.77,1.77,0,0,0-.62-.26,3.67,3.67,0,0,0-.79-.08,6.33,6.33,0,0,0-1.58.18,6,6,0,0,0-1.32.51l-.92-1.86a8.1,8.1,0,0,1,2-1,7.12,7.12,0,0,1,2.26-.35,6.81,6.81,0,0,1,1.72.21,3.48,3.48,0,0,1,1.35.67,3.14,3.14,0,0,1,.88,1.21,4.59,4.59,0,0,1,.32,1.82v3.6h1.33v2.62h-4.13Zm-2.18-1.48a3.32,3.32,0,0,0,1.23-.22,3.66,3.66,0,0,0,.95-.54v-1.26h-2.29a1.4,1.4,0,0,0-.43.07,1.25,1.25,0,0,0-.38.19.94.94,0,0,0-.27.31.85.85,0,0,0-.1.42,1,1,0,0,0,.32.74A1.39,1.39,0,0,0,202.45,117.93Z"/><path class="cls-2" d="M209.9,105.07h4.32v5.19a5.46,5.46,0,0,1,1.06-.38,4.69,4.69,0,0,1,1.12-.13,5,5,0,0,1,3.65,1.53,5.28,5.28,0,0,1,1.45,3.66,5.41,5.41,0,0,1-.38,2,5,5,0,0,1-1.06,1.65,5,5,0,0,1-1.62,1.11,5.12,5.12,0,0,1-2.06.41,5.58,5.58,0,0,1-1.15-.11,5.45,5.45,0,0,1-1-.33v.27h-2.93V107.69H209.9Zm6.3,7.31a2.24,2.24,0,0,0-1.13.29,2.45,2.45,0,0,0-.85.82v3a2.28,2.28,0,0,0,.82.74,2.32,2.32,0,0,0,1.14.28,2.45,2.45,0,0,0,.93-.18,2.29,2.29,0,0,0,.77-.51,2.39,2.39,0,0,0,.52-.79,2.71,2.71,0,0,0,.19-1,2.86,2.86,0,0,0-.19-1.07,2.46,2.46,0,0,0-.52-.81,2.22,2.22,0,0,0-.76-.51A2.44,2.44,0,0,0,216.2,112.38Z"/><path class="cls-2" d="M222.79,115a5.26,5.26,0,0,1,.39-2,5.07,5.07,0,0,1,2.75-2.77,5.7,5.7,0,0,1,4.25,0,5.13,5.13,0,0,1,1.67,1.12,5.05,5.05,0,0,1,1.08,1.65,5.31,5.31,0,0,1,.39,2,5.46,5.46,0,0,1-.38,2,5,5,0,0,1-2.73,2.79,5.89,5.89,0,0,1-4.32,0,4.92,4.92,0,0,1-2.72-2.78A5.48,5.48,0,0,1,222.79,115Zm2.86,0a2.75,2.75,0,0,0,.19,1,2.55,2.55,0,0,0,.52.82,2.37,2.37,0,0,0,.76.54,2.3,2.3,0,0,0,.93.19,2.37,2.37,0,0,0,.94-.19,2.22,2.22,0,0,0,.76-.53,2.51,2.51,0,0,0,.5-.82,2.9,2.9,0,0,0,.18-1,3,3,0,0,0-.18-1.07,2.4,2.4,0,0,0-.5-.81,2.17,2.17,0,0,0-.76-.51,2.38,2.38,0,0,0-.94-.17,2.35,2.35,0,0,0-.93.17,2.26,2.26,0,0,0-.76.51,2.44,2.44,0,0,0-.52.81A2.88,2.88,0,0,0,225.65,115Z"/><path class="cls-2" d="M243.76,113.64h-2.69v-1a4.5,4.5,0,0,0-.72.05,1.91,1.91,0,0,0-.57.18,1.18,1.18,0,0,0-.41.34,1.31,1.31,0,0,0-.23.54v3.58h2v2.62h-6.46v-2.62h1.48v-4.67h-1.46V110h4.41v.7a3.17,3.17,0,0,1,.95-.52,3.48,3.48,0,0,1,1.15-.18h2.54Z"/><path class="cls-2" d="M251.48,119.41l-.61.36a3.35,3.35,0,0,1-1.13.37,4.59,4.59,0,0,1-.65,0,4.83,4.83,0,0,1-1.59-.24,3.51,3.51,0,0,1-1.19-.67,2.91,2.91,0,0,1-.74-1,3.2,3.2,0,0,1,0-2.53,2.78,2.78,0,0,1,.76-1,3.61,3.61,0,0,1,1.22-.65,5.34,5.34,0,0,1,1.65-.23,9.78,9.78,0,0,1,1.24.07q.56.07,1,.18v-.31a1.37,1.37,0,0,0-.14-.65,1.24,1.24,0,0,0-.4-.45,1.77,1.77,0,0,0-.62-.26,3.67,3.67,0,0,0-.79-.08,6.33,6.33,0,0,0-1.58.18,6,6,0,0,0-1.32.51l-.92-1.86a8.1,8.1,0,0,1,2-1,7.12,7.12,0,0,1,2.26-.35,6.81,6.81,0,0,1,1.72.21,3.48,3.48,0,0,1,1.35.67,3.14,3.14,0,0,1,.88,1.21,4.59,4.59,0,0,1,.32,1.82v3.6h1.33v2.62h-4.13Zm-2.18-1.48a3.32,3.32,0,0,0,1.23-.22,3.66,3.66,0,0,0,.95-.54v-1.26h-2.29a1.4,1.4,0,0,0-.43.07,1.25,1.25,0,0,0-.38.19.94.94,0,0,0-.27.31.85.85,0,0,0-.1.42,1,1,0,0,0,.32.74A1.39,1.39,0,0,0,249.3,117.93Z"/><path class="cls-2" d="M260.58,110h2v2.51h-2l0,4.19a2.45,2.45,0,0,0,.06.59.9.9,0,0,0,.17.36.54.54,0,0,0,.26.18,1.2,1.2,0,0,0,.35,0,2.57,2.57,0,0,0,.64-.07l.55-.17.41,1.84a4.5,4.5,0,0,1-1.08.49,4.91,4.91,0,0,1-1.42.18,3.12,3.12,0,0,1-1.11-.2,2.58,2.58,0,0,1-.93-.61,3,3,0,0,1-.64-1,3.79,3.79,0,0,1-.23-1.42l0-4.39h-1.42V110h1.43l0-2.37,3-1.42Z"/><path class="cls-2" d="M267.06,115.61l0,.3a2,2,0,0,0,.36.76,2.35,2.35,0,0,0,.6.54,2.66,2.66,0,0,0,.76.33,3.35,3.35,0,0,0,.85.11,6.05,6.05,0,0,0,.82-.05,6.51,6.51,0,0,0,.75-.14c.24-.06.48-.13.71-.21l.7-.25,1.05,2q-.54.33-1,.57a6.38,6.38,0,0,1-.91.39,5.48,5.48,0,0,1-1,.22,8.85,8.85,0,0,1-1.2.07,5.84,5.84,0,0,1-2.29-.42,4.82,4.82,0,0,1-2.73-2.85,5.93,5.93,0,0,1-.36-2.07,5.52,5.52,0,0,1,.38-2A5,5,0,0,1,267.3,110a5.31,5.31,0,0,1,2.12-.41,5.22,5.22,0,0,1,2.07.39,4.34,4.34,0,0,1,1.53,1.07,4.8,4.8,0,0,1,1,1.61,6.3,6.3,0,0,1,.36,2,4.58,4.58,0,0,1,0,.47,4.78,4.78,0,0,1,0,.48Zm2.29-3.61a2.84,2.84,0,0,0-.91.13,1.88,1.88,0,0,0-.64.35,1.8,1.8,0,0,0-.41.51,2.87,2.87,0,0,0-.24.6h4.14a3.13,3.13,0,0,0-.19-.61,1.63,1.63,0,0,0-.34-.51,1.56,1.56,0,0,0-.56-.35A2.41,2.41,0,0,0,269.35,112Z"/><path class="cls-2" d="M275.73,118.4a1.85,1.85,0,0,1,1.13-1.72,1.84,1.84,0,0,1,.74-.15,1.76,1.76,0,0,1,.71.15,1.92,1.92,0,0,1,.59.4,1.82,1.82,0,0,1,.4.6,1.84,1.84,0,0,1,.14.72,1.82,1.82,0,0,1-.15.73,1.86,1.86,0,0,1-1,1,1.75,1.75,0,0,1-.72.15,1.83,1.83,0,0,1-.74-.15,1.94,1.94,0,0,1-.59-.4,1.74,1.74,0,0,1-.39-.59A1.93,1.93,0,0,1,275.73,118.4Z"/><path class="cls-2" d="M160.77,62.62V77.4h-3.31v-21h2.6l12,15.14V56.44h3.34v21h-2.75Z"/><path class="cls-2" d="M188.42,77.4v-21h3.31v21Z"/><path class="cls-2" d="M219.43,74.8a8.29,8.29,0,0,1-6.12,2.75,8.84,8.84,0,0,1-3.9-.87,10.06,10.06,0,0,1-3.13-2.35,11,11,0,0,1-2.08-3.43,11.23,11.23,0,0,1-.75-4.08,11,11,0,0,1,.75-4.05,10.71,10.71,0,0,1,2.08-3.37,9.81,9.81,0,0,1,3.16-2.29,10.37,10.37,0,0,1,9,.41,8.12,8.12,0,0,1,3.08,3.33L219,62.67a5.89,5.89,0,0,0-2.37-2.57,6.58,6.58,0,0,0-3.31-.86,5.71,5.71,0,0,0-2.69.64,6.6,6.6,0,0,0-2.07,1.68A7.56,7.56,0,0,0,207.27,64a9.2,9.2,0,0,0-.46,2.9,8.47,8.47,0,0,0,.52,3,7.76,7.76,0,0,0,1.42,2.42A6.72,6.72,0,0,0,210.89,74a6.05,6.05,0,0,0,2.69.61,6.7,6.7,0,0,0,3.06-.74,9,9,0,0,0,2.79-2.34V69.24H215V66.79h7.18V77.4h-2.78Z"/><path class="cls-2" d="M251.52,56.41v21h-3.34V68.15H237.59V77.4h-3.31v-21h3.31v8.78h10.59V56.41Z"/><path class="cls-2" d="M279.93,59.33h-7V77.4h-3.34V59.33h-7V56.41h17.33Z"/><path class="cls-2" d="M98.44.52a1.14,1.14,0,0,1,1.24,1.37L94.08,51.3a1.2,1.2,0,0,1-1.37,1.24H86.35a1.35,1.35,0,0,1-1.43-1.17L78.15,22,71.33,51.43a1.35,1.35,0,0,1-1.43,1.11h-6.5A1.2,1.2,0,0,1,62,51.3L56.7,1.88A1.14,1.14,0,0,1,57.93.52h6.18a1.27,1.27,0,0,1,1.37,1.23L68,32.18h.33L74.77,1.69A1.35,1.35,0,0,1,76.2.52h3.9a1.35,1.35,0,0,1,1.43,1.17l6.37,30.49h.33L90.9,1.75A1.27,1.27,0,0,1,92.26.52Z"/><path class="cls-2" d="M104.22,9.88c0-6.11,3.25-9.36,9.36-9.36h7.28c6.11,0,9.36,3.25,9.36,9.36V43.17c0,6.11-3.25,9.36-9.36,9.36h-7.28c-6.11,0-9.36-3.25-9.36-9.36Zm15,34.26a2.31,2.31,0,0,0,2.6-2.6v-30a2.33,2.33,0,0,0-2.6-2.6h-3.77a2.33,2.33,0,0,0-2.6,2.6v30a2.31,2.31,0,0,0,2.6,2.6Z"/><path class="cls-2" d="M163.46,25.74c0,4.36-1.63,7.22-4.75,8.58l4.49,17c.2.78-.2,1.17-.91,1.17h-6.76a1,1,0,0,1-1.11-.91l-4.36-16.51h-4.49V51.49a1,1,0,0,1-1,1h-6.76a1,1,0,0,1-1-1V1.56a1,1,0,0,1,1-1h16.32c6.11,0,9.36,3.25,9.36,9.36ZM152,26.52a2.33,2.33,0,0,0,2.6-2.6V11.7A2.33,2.33,0,0,0,152,9.1h-6.44V26.52Z"/><path class="cls-2" d="M190.89,52.53a1.44,1.44,0,0,1-1.5-1L181.2,32.25l-2.41,4.62V51.23a1.17,1.17,0,0,1-1.3,1.3h-6.24a1.17,1.17,0,0,1-1.3-1.3V1.82a1.17,1.17,0,0,1,1.3-1.3h6.24a1.17,1.17,0,0,1,1.3,1.3V22l10-20.48a1.54,1.54,0,0,1,1.5-1h6.83c1,0,1.37.65.91,1.56L187,24.77,198.76,51c.46.84.07,1.5-1,1.5Z"/><path class="cls-2" d="M212.61.52a1,1,0,0,1,1,1V51.49a1,1,0,0,1-1,1h-6.76a.93.93,0,0,1-1-1V1.56a.93.93,0,0,1,1-1Z"/><path class="cls-2" d="M246.87.52a1,1,0,0,1,1,1V51.49a1,1,0,0,1-1,1h-6.44a1.12,1.12,0,0,1-1.17-.85l-9.95-27.76H229V51.49a.93.93,0,0,1-1,1h-6.76a1,1,0,0,1-1-1V1.56a1,1,0,0,1,1-1h6.44a1.12,1.12,0,0,1,1.17.84L238.68,29h.39V1.56a.93.93,0,0,1,1-1Z"/><path class="cls-2" d="M254.41,9.88c0-6.11,3.25-9.36,9.36-9.36h8.58c6,0,9.36,3.25,9.36,9.36v6.76a1,1,0,0,1-1,1h-6.5a.93.93,0,0,1-1-1V11.7a2.33,2.33,0,0,0-2.6-2.6h-4.68a2.31,2.31,0,0,0-2.6,2.6V41.35a2.31,2.31,0,0,0,2.6,2.6h4.68a2.31,2.31,0,0,0,2.6-2.6V32.64h-3.38a.93.93,0,0,1-1-1v-6.5a.9.9,0,0,1,1-1h10.92a.93.93,0,0,1,1,1V43.17c0,6.11-3.32,9.36-9.36,9.36h-8.58c-6.11,0-9.36-3.25-9.36-9.36Z"/><path class="cls-2" d="M24.87,12.42a.72.72,0,0,1-.79.79H19.15a.7.7,0,0,1-.79-.79V8.48a1.77,1.77,0,0,0-2-2H13.82a1.75,1.75,0,0,0-2,2V31a1.75,1.75,0,0,0,2,2h2.56a1.75,1.75,0,0,0,2-2V27a.7.7,0,0,1,.79-.79h4.93a.73.73,0,0,1,.79.79v5.32c0,4.63-2.51,7.1-7.1,7.1H12.25c-4.63,0-7.15-2.46-7.15-7.1V7.1C5.1,2.46,7.61,0,12.25,0h5.52c4.58,0,7.1,2.46,7.1,7.1Z"/><path class="cls-2" d="M29.8,7.1c0-4.63,2.46-7.1,7.1-7.1h5.52c4.63,0,7.1,2.46,7.1,7.1V32.34c0,4.63-2.46,7.1-7.1,7.1H36.9c-4.63,0-7.1-2.46-7.1-7.1Zm11.39,26a1.75,1.75,0,0,0,2-2V8.33a1.77,1.77,0,0,0-2-2H38.33a1.77,1.77,0,0,0-2,2V31.11a1.75,1.75,0,0,0,2,2Z"/><path class="cls-2" d="M2.63,47.85a.88.88,0,0,1,1-1h47a.88.88,0,0,1,1,1v4.54a.88.88,0,0,1-1,1h-47a.88.88,0,0,1-1-1Z"/></g></g></svg>